<?xml version="1.0" encoding="UTF-8"?>
<svg width="125px" height="125px" viewBox="0 0 125 125" version="1.1" xmlns="http://www.w3.org/2000/svg" xmlns:xlink="http://www.w3.org/1999/xlink">
    <!-- Generator: Sketch 52.6 (67491) - http://www.bohemiancoding.com/sketch -->
    <title>np_data_3437690_000000</title>
    <desc>Created with Sketch.</desc>
    <g id="Page-1" stroke="none" stroke-width="1" fill="none" fill-rule="evenodd">
        <g id="np_data_3437690_000000">
            <rect id="Rectangle" fill="#1A3553" x="0" y="0" width="125" height="125"></rect>
            <path d="M96.992,41.742 L109.582,41.742 C110.12106,41.742 110.55856,42.28106 110.55856,42.71856 L110.55856,109.87456 C110.55856,110.41362 110.12106,110.85112 109.582,110.85112 L96.992,110.85112 C96.45294,110.85112 96.01544,110.31206 96.01544,109.87456 L96.01544,42.71856 C96.01544,42.1795 96.45294,41.742 96.992,41.742 Z" id="Path" fill="#FFFFFF"></path>
            <path d="M20.1836,94.207 L32.7736,94.207 C33.31266,94.207 33.75016,94.74606 33.75016,95.18356 L33.75016,109.87456 C33.75016,110.41362 33.31266,110.85112 32.7736,110.85112 L20.1836,110.85112 C19.64454,110.85112 19.20704,110.31206 19.20704,109.87456 L19.20704,95.18356 C19.20704,94.6445 19.64454,94.207 20.1836,94.207 Z" id="Path" fill="#FFFFFF"></path>
            <path d="M77.789,63.148 L90.379,63.148 C90.91806,63.148 91.35556,63.68706 91.35556,64.12456 L91.35556,109.87456 C91.35556,110.41362 90.91806,110.85112 90.379,110.85112 L77.789,110.85112 C77.24994,110.85112 76.81244,110.31206 76.81244,109.87456 L76.81244,64.12456 C76.81244,63.5855 77.24994,63.148 77.789,63.148 Z" id="Path" fill="#FFFFFF"></path>
            <path d="M58.59,75.527 L71.18,75.527 C71.71906,75.527 72.15656,76.06606 72.15656,76.50356 L72.15656,109.87056 C72.15656,110.40962 71.71906,110.84712 71.18,110.84712 L58.59,110.84712 C58.05094,110.84712 57.61344,110.30806 57.61344,109.87056 L57.61344,76.50356 C57.61344,75.9645 58.05094,75.527 58.59,75.527 Z" id="Path" fill="#FFFFFF"></path>
            <path d="M39.387,83.715 L51.977,83.715 C52.51606,83.715 52.95356,84.25406 52.95356,84.69156 L52.95356,109.87556 C52.95356,110.41462 52.51606,110.85212 51.977,110.85212 L39.387,110.85212 C38.84794,110.85212 38.41044,110.31306 38.41044,109.87556 L38.41044,84.69156 C38.41044,84.1525 38.84794,83.715 39.387,83.715 Z" id="Path" fill="#FFFFFF"></path>
            <path d="M42.52,44.223 C42.31297,44.05503 42.05516,43.96519 41.78953,43.96519 C41.746562,43.96519 41.707499,43.96519 41.66453,43.969096 C41.11375,44.02769 40.67625,44.469096 40.62543,45.019896 C40.574649,45.574586 40.92231,46.086296 41.45355,46.246496 C41.9848,46.402746 42.55515,46.164464 42.81685,45.672276 C43.07466,45.180086 42.94966,44.574576 42.51997,44.223076 L42.52,44.223 Z" id="Path" fill="#FFFFFF"></path>
            <path d="M40.891,34.941 C41.28944,35.26522 41.82069,35.37459 42.3129,35.23397 C42.80509,35.09725 43.19962,34.72616 43.3715,34.24569 C43.54338,33.76131 43.47306,33.22619 43.17619,32.80819 C42.87931,32.38631 42.40275,32.14022 41.88709,32.13631 C41.832402,32.13631 41.77771,32.140216 41.72303,32.144122 C41.08631,32.210529 40.55503,32.655842 40.37143,33.265222 C40.19174,33.878502 40.394867,34.538622 40.89096,34.941022 L40.891,34.941 Z" id="Path" fill="#FFFFFF"></path>
            <path d="M22.4805,48.637 C22.72269,48.09403 22.82034,47.4964 22.76566,46.9065 L28.95706,44.5471 C29.046904,44.74632 29.14065,44.94163 29.23831,45.13694 C30.67191,47.94554 33.03521,50.16814 35.92581,51.42604 L35.14456,53.41044 C33.97266,53.402628 32.92576,54.14091 32.53516,55.24244 C32.30469,55.91041 32.35547,56.64474 32.67969,57.27364 C33.01172,57.92208 33.58985,58.40644 34.28909,58.61744 C35.70709,59.05885 37.21879,58.30494 37.71879,56.90654 C37.94926,56.24248 37.89848,55.50814 37.57426,54.87924 C37.42582,54.58627 37.21879,54.32065 36.9727,54.1019 L37.76176,52.0941 C40.39846,52.85582 43.19536,52.84801 45.82816,52.074569 L48.19536,57.926169 C47.67974,58.297259 47.27349,58.801169 47.01566,59.379269 C46.63285,60.234739 46.61332,61.211269 46.960973,62.082369 C47.527383,63.465169 48.878973,64.363569 50.371173,64.351869 C50.820393,64.351869 51.265703,64.269838 51.683673,64.113589 C52.605553,63.773749 53.351673,63.078389 53.750073,62.179989 C54.136793,61.324519 54.156323,60.347989 53.808667,59.476889 C53.187577,57.972989 51.644567,57.054989 50.023467,57.230789 L47.664067,51.398789 C50.992167,49.945689 53.621067,47.246489 54.980467,43.879289 L57.074267,44.633199 C57.078173,45.035539 57.175827,45.430079 57.359427,45.789399 C57.687547,46.437839 58.269587,46.926099 58.968827,47.137099 C60.386827,47.574599 61.898527,46.820689 62.398527,45.426199 C62.628997,44.758229 62.578217,44.023899 62.253997,43.398899 C61.925877,42.746559 61.343837,42.262199 60.644597,42.047299 C59.625097,41.734799 58.515697,42.031674 57.785197,42.809019 L55.570397,42.012139 L55.570397,42.016045 C56.066487,39.934045 56.043057,37.762145 55.500085,35.691845 L61.605585,33.039545 C62.671985,34.270045 64.406385,34.668445 65.902485,34.031735 C66.804825,33.652825 67.519685,32.922335 67.875185,32.008335 C68.218935,31.133335 68.191595,30.156735 67.800966,29.305235 C66.945496,27.500535 64.812666,26.699735 62.984566,27.492735 C62.078316,27.871645 61.367366,28.602135 61.011866,29.516135 C60.793116,30.066915 60.722806,30.668435 60.804836,31.258335 L54.863436,33.840335 C54.746246,33.566895 54.625156,33.297365 54.488436,33.031745 C52.789236,29.711445 49.812636,27.230945 46.242336,26.156745 C46.203273,26.145026 46.16421,26.133307 46.125146,26.121589 L46.906396,24.133289 C48.078296,24.137196 49.125196,23.402819 49.515796,22.297389 C49.746266,21.629419 49.695486,20.898989 49.371266,20.270089 C49.043146,19.621649 48.461106,19.133389 47.761866,18.922389 C46.343866,18.480979 44.832166,19.234889 44.332166,20.633289 C44.101696,21.301259 44.152476,22.031689 44.476696,22.660589 C44.629036,22.957469 44.832166,23.219179 45.078256,23.441839 L44.199346,25.684039 L44.199346,25.680133 C41.285246,25.230913 38.300946,25.676226 35.644646,26.961333 L33.105546,21.465233 C33.597736,21.070703 33.980546,20.555073 34.211046,19.965233 C34.554796,19.090233 34.527456,18.113633 34.136827,17.262133 C33.281357,15.457433 31.148527,14.656633 29.320427,15.449633 C28.414177,15.828543 27.703227,16.559033 27.347727,17.473033 C27.003977,18.344123 27.031317,19.320733 27.421946,20.176133 C28.027416,21.473033 29.336046,22.297233 30.769646,22.289433 C30.949336,22.285527 31.132926,22.269902 31.312616,22.242559 L33.945416,27.930059 C31.632916,29.449559 29.836016,31.633159 28.785216,34.191759 L26.687516,33.437849 C26.68361,33.035509 26.585956,32.640969 26.402356,32.281649 C26.074236,31.633209 25.492196,31.144949 24.792956,30.933949 C23.374956,30.492539 21.863256,31.250359 21.363256,32.644849 C21.132786,33.312819 21.183566,34.047149 21.507786,34.676049 C21.839816,35.324489 22.417946,35.812749 23.117186,36.023749 C23.382806,36.10578 23.660156,36.144839 23.937496,36.144839 C24.710936,36.144839 25.449196,35.824529 25.976596,35.262029 L28.183596,36.054999 L28.183596,36.051092 C27.640626,38.242492 27.679686,40.539392 28.289066,42.711292 L22.050766,45.086292 C21.046866,43.812892 19.331966,43.332392 17.812466,43.902692 C16.890586,44.238632 16.144466,44.933892 15.746066,45.832392 C15.359346,46.687862 15.339816,47.664392 15.687472,48.535492 C16.253882,49.918292 17.605472,50.816692 19.101572,50.804992 C19.546882,50.804992 19.992202,50.72296 20.410172,50.566712 C21.332052,50.230772 22.078172,49.531512 22.480472,48.637012 L22.4805,48.637 Z M42.1095,48.23075 C42.00012,48.238562 41.89075,48.246375 41.78138,48.246375 C40.08608,48.246375 38.70328,46.894775 38.66028,45.207275 C38.617312,43.515875 39.92978,42.093975 41.61728,42.008075 C43.30868,41.918232 44.76178,43.191675 44.89458,44.879175 C45.02739,46.566675 43.78908,48.051075 42.10938,48.230775 L42.1095,48.23075 Z M46.7579,38.48465 C47.65243,38.551056 48.3985,39.18387 48.6134,40.05105 C48.64465,40.17605 48.81262,40.19167 48.86731,40.074488 C48.98059,39.844018 49.17981,39.660428 49.422,39.574488 C49.66809,39.48855 49.93372,39.500269 50.16809,39.61355 C50.65637,39.84402 50.8634,40.42605 50.63293,40.91435 C50.29309,41.64482 49.55873,42.10965 48.75403,42.10965 C48.683718,42.10965 48.61341,42.105744 48.54309,42.097931 C47.66418,42.019806 46.92979,41.390901 46.71889,40.531531 C46.711078,40.472937 46.660296,40.429971 46.5978,40.429971 C46.539206,40.418252 46.48061,40.453408 46.46108,40.512002 C46.35952,40.750282 46.1642,40.937782 45.92202,41.035442 C45.67983,41.129192 45.4103,41.125286 45.17202,41.019817 C44.93374,40.918257 44.74624,40.719037 44.65249,40.476847 C44.55874,40.234657 44.566552,39.965127 44.672021,39.726847 C45.027491,38.902627 45.867321,38.402647 46.757921,38.484647 L46.7579,38.48465 Z M41.5196,30.20345 C43.461,30.00033 45.1954,31.41045 45.3985,33.35185 C45.60162,35.29325 44.1915,37.02765 42.2501,37.23075 C42.12901,37.242469 42.00401,37.250281 41.87901,37.250281 C40.00011,37.246375 38.45321,35.773681 38.35951,33.898681 C38.261854,32.019781 39.65251,30.398681 41.51971,30.203381 L41.5196,30.20345 Z M31.4726,38.59015 C32.08198,37.68781 33.1093,37.28155 34.0273,37.58235 C34.85152,37.85188 35.3632,38.62925 35.332,39.56285 L35.335907,39.558944 C35.332,39.574569 35.332,39.590194 35.335907,39.605819 C35.449187,39.566756 35.550747,39.488629 35.613247,39.383159 C35.925747,38.949569 36.531217,38.847999 36.968747,39.156599 C37.406277,39.465199 37.511717,40.070659 37.207027,40.512099 C36.777337,41.152719 36.066427,41.543299 35.296827,41.566799 C35.081987,41.566799 34.871047,41.531643 34.667917,41.461329 C33.839797,41.172269 33.316317,40.363629 33.382717,39.488629 L33.382717,39.441754 L33.382717,39.44566 C33.261627,39.484723 33.156157,39.57066 33.093657,39.68394 C32.792877,40.12925 32.187407,40.24644 31.738157,39.94566 C31.292847,39.64488 31.175657,39.03941 31.472537,38.59016 L31.4726,38.59015 Z" id="Shape" fill="#FFFFFF" fill-rule="nonzero"></path>
        </g>
    </g>
</svg>